<?xml version="1.0" encoding="UTF-8" standalone="no"?>
<svg width="175px" height="300px" viewBox="0 0 175 300" version="1.1" xmlns="http://www.w3.org/2000/svg" xmlns:xlink="http://www.w3.org/1999/xlink">
    <!-- Generator: Sketch 39.1 (31720) - http://www.bohemiancoding.com/sketch -->
    <title>Combined Shape</title>
    <desc>Created with Sketch.</desc>
    <defs></defs>
    <g id="Paleta-de-colores" stroke="none" stroke-width="1" fill="none" fill-rule="evenodd">
        <g id="Artboard-3" transform="translate(-413.000000, -284.000000)" fill="#2F2D2E">
            <g id="Group-2" transform="translate(321.000000, 284.000000)">
                <path d="M179.498291,275.130032 L165.94228,265.312643 C165.94228,265.312643 162.858965,263.601185 160.710625,266.451244 C158.562285,269.301303 161.444761,271.895538 161.444761,271.895538 L175.520994,281.984248 L175.520994,291.914789 C174.356803,291.855987 154.756366,290.717485 138.776171,280.030965 C122.300613,269.013178 121.738927,264.074322 120.592852,259.633719 C119.446776,255.193116 125.959268,243.183649 125.959268,243.183649 C125.959268,243.183649 129.485593,236.009288 134.766835,222.572786 C140.048077,209.136283 142.924031,187.532966 142.924031,187.532966 C142.924031,187.532966 145.643764,197.015734 146.568706,202.636124 C147.493648,208.256514 148.391272,215.340133 148.391272,215.340133 C148.391272,215.340133 149.26323,218.771555 152.734156,218.351071 C156.205082,217.930588 156.205079,214.819335 156.205079,214.819335 C156.205079,214.819335 155.976437,207.655305 152.907451,193.694301 C149.838464,179.733297 145.127937,168.728435 145.127937,168.728435 C145.127937,168.728435 146.119386,164.998407 146.119386,143.828692 C146.119386,122.658976 142.04637,97.8531566 142.04637,97.8531566 C142.04637,97.8531566 139.999307,84.997638 133.923089,64.1668122 C127.84687,43.3359864 109.687418,16.8850121 109.687418,16.8850121 C109.687418,16.8850121 118.096908,22.7216212 125.95927,30.7672022 C133.602038,38.5880722 141.102056,48.5308561 146.765461,57.3856803 C158.254994,75.3497475 167.627627,106.759502 167.627627,106.759502 L175.413694,135.568522 C175.241072,136.728564 175.191416,139.420496 178.300293,139.946818 C178.73557,140.020509 179.133946,140.043766 179.498291,140.026722 C179.862636,140.043766 180.261012,140.020509 180.696289,139.946818 C183.805166,139.420496 183.75551,136.728564 183.582888,135.568522 L191.368955,106.759502 C191.368955,106.759502 200.741588,75.3497475 212.231121,57.3856803 C217.894526,48.5308561 225.394544,38.5880722 233.037312,30.7672022 C240.899674,22.7216212 249.309164,16.8850121 249.309164,16.8850121 C249.309164,16.8850121 231.149712,43.3359864 225.073493,64.1668122 C218.997275,84.997638 216.950211,97.8531566 216.950211,97.8531566 C216.950211,97.8531566 212.877196,122.658976 212.877196,143.828692 C212.877196,164.998407 213.868645,168.728435 213.868645,168.728435 C213.868645,168.728435 209.158118,179.733297 206.089131,193.694301 C203.020145,207.655305 202.791503,214.819335 202.791503,214.819335 C202.791503,214.819335 202.7915,217.930588 206.262426,218.351071 C209.733352,218.771555 210.60531,215.340133 210.60531,215.340133 C210.60531,215.340133 211.502934,208.256514 212.427876,202.636124 C213.352818,197.015734 216.072551,187.532966 216.072551,187.532966 C216.072551,187.532966 218.948505,209.136283 224.229747,222.572786 C229.510989,236.009288 233.037314,243.183649 233.037314,243.183649 C233.037314,243.183649 239.549806,255.193116 238.40373,259.633719 C237.257654,264.074322 236.695969,269.013178 220.220411,280.030965 C204.240216,290.717485 184.639778,291.855987 183.475588,291.914789 L183.475588,281.984248 L197.551821,271.895538 C197.551821,271.895538 200.434296,269.301303 198.285957,266.451244 C196.137617,263.601185 193.054302,265.312643 193.054302,265.312643 L179.498291,275.130032 Z M179.498291,119.26149 C179.439201,119.048239 179.379543,118.833734 179.319323,118.618036 C175.889845,106.334223 170.791674,90.0998915 166.545201,80.3125698 C159.075861,63.097145 153.670745,51.1632916 144.098496,39.2507448 C134.526246,27.338198 128.302916,21.0850335 117.845488,12.9516654 C107.38806,4.81829718 99.2716429,1.08878431 98.0540001,0.603195665 C96.8363573,0.117607023 95.4929319,-0.468042482 93.6454439,0.603195653 C91.7979558,1.67443379 92.0071307,4.59194444 92.0071307,4.59194444 C92.0071307,4.59194444 92.0071307,13.0036204 93.3174359,31.1951121 C94.6277412,49.3866037 99.2716426,68.6596573 99.2716426,68.6596573 C99.2716426,68.6596573 102.547943,84.529504 114.50761,107.172965 C126.467277,129.816425 138.260561,145.186492 138.260561,145.186492 C138.260561,145.186492 138.260563,157.812095 136.710427,173.593178 C135.160291,189.374262 133.175358,199.166379 131.686623,205.874026 C128.162449,221.752543 117.845488,241.715384 117.845488,241.715384 C117.845488,241.715384 114.274749,249.57521 113.516025,252.813428 C112.757301,256.051646 111.416814,260.163883 114.507611,267.103772 C117.598407,274.04366 127.205841,282.579092 136.710427,288.097887 C146.215013,293.616682 151.808206,295.439163 162.271362,297.921392 C166.963202,299.034462 171.710924,299.561447 175.520994,299.804155 L175.520994,299.971116 C175.520994,299.971116 177.0426,300.032386 179.498291,299.976454 C181.953982,300.032386 183.475588,299.971116 183.475588,299.971116 L183.475588,299.804155 C187.285657,299.561447 192.03338,299.034462 196.72522,297.921392 C207.188376,295.439163 212.781569,293.616682 222.286155,288.097887 C231.790741,282.579092 241.398175,274.04366 244.488971,267.103772 C247.579767,260.163883 246.239281,256.051646 245.480557,252.813428 C244.721833,249.57521 241.151094,241.715384 241.151094,241.715384 C241.151094,241.715384 230.834133,221.752543 227.309959,205.874026 C225.821224,199.166379 223.836291,189.374262 222.286155,173.593178 C220.736019,157.812095 220.73602,145.186492 220.73602,145.186492 C220.73602,145.186492 232.529305,129.816425 244.488972,107.172965 C256.448639,84.529504 259.724939,68.6596573 259.724939,68.6596573 C259.724939,68.6596573 264.368841,49.3866037 265.679146,31.1951121 C266.989451,13.0036204 266.989451,4.59194444 266.989451,4.59194444 C266.989451,4.59194444 267.198626,1.67443379 265.351138,0.603195653 C263.50365,-0.468042482 262.160225,0.117607023 260.942582,0.603195665 C259.724939,1.08878431 251.608522,4.81829718 241.151094,12.9516654 C230.693666,21.0850335 224.470335,27.338198 214.898086,39.2507448 C205.325837,51.1632916 199.92072,63.097145 192.451381,80.3125698 C188.204908,90.0998915 183.106737,106.334223 179.677259,118.618036 C179.617039,118.833734 179.557381,119.048239 179.498291,119.26149 Z M100.474556,17.0265966 C100.474556,17.0265966 100.474556,26.0316464 102.848691,43.1176797 C105.222826,60.2037131 106.902906,72.2954897 116.602317,93.9133962 C126.301728,115.531303 137.659302,130.572436 137.659302,130.572436 C137.659302,130.572436 137.283598,121.492092 135.901305,110.416845 C134.641951,100.326607 132.471292,88.5613705 130.478734,80.8752245 C126.299104,64.7526116 122.992564,56.8540369 115.474304,42.7019294 C107.956043,28.5498219 100.474556,17.0265966 100.474556,17.0265966 Z M258.522026,17.0265966 C258.522026,17.0265966 258.522026,26.0316464 256.147891,43.1176797 C253.773756,60.2037131 252.093676,72.2954897 242.394265,93.9133962 C232.694853,115.531303 221.33728,130.572436 221.33728,130.572436 C221.33728,130.572436 221.712984,121.492092 223.095276,110.416845 C224.354631,100.326607 226.52529,88.5613705 228.517848,80.8752245 C232.697478,64.7526116 236.004018,56.8540369 243.522278,42.7019294 C251.040539,28.5498219 258.522026,17.0265966 258.522026,17.0265966 Z" id="Combined-Shape"></path>
            </g>
        </g>
    </g>
</svg>