<?xml version="1.0" encoding="UTF-8"?>
<svg width="175px" height="90px" viewBox="0 0 175 90" version="1.1" xmlns="http://www.w3.org/2000/svg" xmlns:xlink="http://www.w3.org/1999/xlink">
    <!-- Generator: Sketch 50.2 (55047) - http://www.bohemiancoding.com/sketch -->
    <title>Group 2</title>
    <desc>Created with Sketch.</desc>
    <defs></defs>
    <g id="Page-1" stroke="none" stroke-width="1" fill="none" fill-rule="evenodd">
        <g id="INDEX" transform="translate(-561.000000, -216.000000)">
            <g id="Group-2" transform="translate(561.000000, 216.000000)">
                <path d="M67.5252662,64.0538136 C68.3597484,64.0538136 69.0078145,64.3387309 69.4694841,64.9085741 C69.9311536,65.4784172 70.1619849,66.2848781 70.1619849,67.3279808 C70.1619849,68.3710836 69.929222,69.1814077 69.4636891,69.7589776 C68.9981562,70.3365474 68.3520217,70.625328 67.5252662,70.625328 C67.1118884,70.625328 66.7342523,70.5490281 66.3923464,70.3964261 C66.0504405,70.243824 65.7635915,70.0091294 65.5317909,69.6923352 L65.4622511,69.6923352 L65.2594266,70.5094283 L64.5698232,70.5094283 L64.5698232,61.4924297 L65.5317909,61.4924297 L65.5317909,63.6829345 C65.5317909,64.1735791 65.5163378,64.6139936 65.485431,65.0041913 L65.5317909,65.0041913 C65.9799388,64.370603 66.6444239,64.0538136 67.5252662,64.0538136 Z M67.3861865,64.8593167 C66.7294181,64.8593167 66.2561656,65.0476519 65.9664149,65.4243278 C65.6766641,65.8010038 65.5317909,66.4355485 65.5317909,67.3279808 C65.5317909,68.2204132 65.6805274,68.8588211 65.9780049,69.2432238 C66.2754823,69.6276265 66.7525981,69.8198249 67.4093665,69.8198249 C68.000458,69.8198249 68.4408726,69.6044468 68.7306233,69.173684 C69.0203741,68.7429212 69.1652473,68.1238296 69.1652473,67.3163909 C69.1652473,66.4896353 69.0203741,65.8734413 68.7306233,65.4677902 C68.4408726,65.0621392 67.9927314,64.8593167 67.3861865,64.8593167 Z M70.3988067,64.1581233 L71.4303143,64.1581233 L72.821111,67.7799898 C73.1263151,68.6067453 73.3156161,69.2036229 73.3890196,69.5706405 L73.4353795,69.5706405 C73.485603,69.37361 73.5908775,69.0365383 73.7512063,68.5594154 C73.911535,68.0822925 74.435976,66.6152098 75.324545,64.1581233 L76.3560526,64.1581233 L73.6266141,71.3902662 C73.35618,72.1049847 73.0403564,72.612041 72.6791338,72.9114501 C72.3179112,73.2108592 71.8745992,73.3605615 71.3491845,73.3605615 C71.0555703,73.3605615 70.7658239,73.3277236 70.4799365,73.2620468 L70.4799365,72.4913136 C70.6924204,72.5376737 70.9300125,72.5608534 71.1927198,72.5608534 C71.8533516,72.5608534 72.3246724,72.189978 72.6066965,71.4482161 L72.9601906,70.5441982 L70.3988067,64.1581233 Z M87.0636419,66.1921635 C87.0636419,67.5906939 86.6753817,68.6598581 85.8988496,69.3996884 C85.1223176,70.1395187 84.0038964,70.5094283 82.5435526,70.5094283 L80.1734032,70.5094283 L80.1734032,62.0371584 L82.792737,62.0371584 C84.1410439,62.0371584 85.1899259,62.4003072 85.9394145,63.1266158 C86.6889032,63.8529244 87.0636419,64.8747634 87.0636419,66.1921635 Z M85.6033053,66.2385234 C85.6033053,64.2102681 84.6548687,63.1961556 82.7579671,63.1961556 L81.5584049,63.1961556 L81.5584049,69.344636 L82.5435526,69.344636 C84.5833979,69.344636 85.6033053,68.3092755 85.6033053,66.2385234 Z M89.9024125,70.5094283 L88.5405907,70.5094283 L88.5405907,64.1001735 L89.9024125,64.1001735 L89.9024125,70.5094283 Z M88.4594609,62.4022425 C88.4594609,62.1588519 88.5261026,61.9714825 88.6593879,61.8401288 C88.7926733,61.7087752 88.9829401,61.6430993 89.2301941,61.6430993 C89.4697214,61.6430993 89.6561249,61.7087752 89.7894102,61.8401288 C89.9226956,61.9714825 89.9893373,62.1588519 89.9893373,62.4022425 C89.9893373,62.6340431 89.9226956,62.8165834 89.7894102,62.9498687 C89.6561249,63.0831541 89.4697214,63.1497957 89.2301941,63.1497957 C88.9829401,63.1497957 88.7926733,63.0831541 88.6593879,62.9498687 C88.5261026,62.8165834 88.4594609,62.6340431 88.4594609,62.4022425 Z M97.0526528,70.5094283 L95.6850361,70.5094283 L95.6850361,66.5572477 C95.6850361,66.066603 95.5923172,65.7005567 95.4068767,65.4590978 C95.2214363,65.2176388 94.9316898,65.0969111 94.5376288,65.0969111 C94.0122141,65.0969111 93.6268514,65.2678615 93.3815291,65.6097674 C93.1362067,65.9516733 93.0135474,66.5205421 93.0135474,67.3163909 L93.0135474,70.5094283 L91.6517257,70.5094283 L91.6517257,64.1001735 L92.7180031,64.1001735 L92.9092377,64.9404465 L92.9787775,64.9404465 C93.1564913,64.6352424 93.4143656,64.3995819 93.7524082,64.2334582 C94.0904507,64.0673344 94.462292,63.9842738 94.867943,63.9842738 C95.8530956,63.9842738 96.5059909,64.3203796 96.8266484,64.9926014 L96.9193682,64.9926014 C97.108672,64.6758072 97.3752387,64.4285569 97.7190763,64.2508431 C98.0629138,64.0731293 98.456969,63.9842738 98.9012535,63.9842738 C99.6661955,63.9842738 100.223474,64.177438 100.573107,64.5637724 C100.92274,64.9501067 101.097553,65.5392578 101.097553,66.3312432 L101.097553,70.5094283 L99.7357315,70.5094283 L99.7357315,66.5572477 C99.7357315,66.066603 99.6420468,65.7005567 99.4546747,65.4590978 C99.2673025,65.2176388 98.9765903,65.0969111 98.5825292,65.0969111 C98.0532512,65.0969111 97.6659568,65.2620666 97.4206345,65.5923824 C97.1753122,65.9226983 97.0526528,66.4297545 97.0526528,67.1135663 L97.0526528,70.5094283 Z M104.162328,70.5094283 L102.800507,70.5094283 L102.800507,64.1001735 L104.162328,64.1001735 L104.162328,70.5094283 Z M102.719377,62.4022425 C102.719377,62.1588519 102.786018,61.9714825 102.919304,61.8401288 C103.052589,61.7087752 103.242856,61.6430993 103.49011,61.6430993 C103.729637,61.6430993 103.916041,61.7087752 104.049326,61.8401288 C104.182611,61.9714825 104.249253,62.1588519 104.249253,62.4022425 C104.249253,62.6340431 104.182611,62.8165834 104.049326,62.9498687 C103.916041,63.0831541 103.729637,63.1497957 103.49011,63.1497957 C103.242856,63.1497957 103.052589,63.0831541 102.919304,62.9498687 C102.786018,62.8165834 102.719377,62.6340431 102.719377,62.4022425 Z M108.299176,69.5242806 C108.631423,69.5242806 108.963666,69.4721263 109.295913,69.367816 L109.295913,70.3935286 C109.145243,70.4592054 108.951113,70.5142572 108.713517,70.5586857 C108.475922,70.6031141 108.229637,70.625328 107.974657,70.625328 C106.6843,70.625328 106.039131,69.9453898 106.039131,68.5854928 L106.039131,65.131681 L105.164088,65.131681 L105.164088,64.5290025 L106.102876,64.0306336 L106.566475,62.6746069 L107.406748,62.6746069 L107.406748,64.1001735 L109.232169,64.1001735 L109.232169,65.131681 L107.406748,65.131681 L107.406748,68.5623129 C107.406748,68.8906971 107.488843,69.1331183 107.653035,69.2895837 C107.817227,69.4460491 108.032605,69.5242806 108.299176,69.5242806 Z M113.629791,63.9842738 C113.904088,63.9842738 114.13009,64.0035902 114.307804,64.0422236 L114.174519,65.3113256 C113.981352,65.2649655 113.780461,65.2417858 113.571841,65.2417858 C113.027109,65.2417858 112.585729,65.4194969 112.247686,65.7749245 C111.909644,66.1303521 111.740625,66.5920147 111.740625,67.1599262 L111.740625,70.5094283 L110.378803,70.5094283 L110.378803,64.1001735 L111.445081,64.1001735 L111.624725,65.2301958 L111.694265,65.2301958 C111.906749,64.8477248 112.18394,64.5444569 112.525846,64.320383 C112.867752,64.096309 113.23573,63.9842738 113.629791,63.9842738 Z M116.659796,70.5094283 L115.297974,70.5094283 L115.297974,64.1001735 L116.659796,64.1001735 L116.659796,70.5094283 Z M115.216844,62.4022425 C115.216844,62.1588519 115.283486,61.9714825 115.416771,61.8401288 C115.550056,61.7087752 115.740323,61.6430993 115.987577,61.6430993 C116.227105,61.6430993 116.413508,61.7087752 116.546793,61.8401288 C116.680079,61.9714825 116.74672,62.1588519 116.74672,62.4022425 C116.74672,62.6340431 116.680079,62.8165834 116.546793,62.9498687 C116.413508,63.0831541 116.227105,63.1497957 115.987577,63.1497957 C115.740323,63.1497957 115.550056,63.0831541 115.416771,62.9498687 C115.283486,62.8165834 115.216844,62.6340431 115.216844,62.4022425 Z M125.043595,63.1034358 C124.247747,63.1034358 123.621894,63.3854557 123.16602,63.9495038 C122.710145,64.513552 122.482212,65.292004 122.482212,66.2848833 C122.482212,67.3241227 122.701453,68.1103013 123.139942,68.6434427 C123.578432,69.1765841 124.212977,69.4431508 125.043595,69.4431508 C125.402886,69.4431508 125.750582,69.4074154 126.086693,69.3359436 C126.422804,69.2644717 126.772431,69.1727187 127.135586,69.0606817 L127.135586,70.2486539 C126.47109,70.4997712 125.71775,70.625328 124.875541,70.625328 C123.635408,70.625328 122.683108,70.2496235 122.018613,69.4982032 C121.354118,68.7467829 121.021875,67.6718237 121.021875,66.2732933 C121.021875,65.392451 121.183167,64.6217255 121.505756,63.9610938 C121.828346,63.3004621 122.294837,62.7943717 122.905246,62.4428074 C123.515654,62.0912432 124.232293,61.9154637 125.055185,61.9154637 C125.920574,61.9154637 126.720275,62.0970381 127.45431,62.4601924 L126.955941,63.6133946 C126.670054,63.4781776 126.367751,63.3593816 126.049026,63.257003 C125.7303,63.1546244 125.39516,63.1034358 125.043595,63.1034358 Z M134.303211,67.2932109 C134.303211,68.340177 134.034713,69.1572619 133.497708,69.7444901 C132.960703,70.3317183 132.213157,70.625328 131.255048,70.625328 C130.65623,70.625328 130.12696,70.490113 129.667222,70.219679 C129.207484,69.9492449 128.853993,69.5609847 128.606739,69.0548867 C128.359485,68.5487887 128.23586,67.9615693 128.23586,67.2932109 C128.23586,66.2539715 128.502427,65.4426815 129.035568,64.8593167 C129.56871,64.2759518 130.320119,63.9842738 131.289818,63.9842738 C132.21702,63.9842738 132.951045,64.2827126 133.491913,64.8795991 C134.032781,65.4764857 134.303211,66.2810149 134.303211,67.2932109 Z M129.638247,67.2932109 C129.638247,68.7728715 130.184902,69.5126907 131.278228,69.5126907 C132.359964,69.5126907 132.900824,68.7728715 132.900824,67.2932109 C132.900824,65.8290037 132.356101,65.0969111 131.266638,65.0969111 C130.694863,65.0969111 130.280526,65.2862121 130.023614,65.6648198 C129.766701,66.0434274 129.638247,66.5862191 129.638247,67.2932109 Z M141.308577,70.5094283 L139.94096,70.5094283 L139.94096,66.5688376 C139.94096,66.0743297 139.84148,65.7053859 139.642518,65.4619953 C139.443556,65.2186046 139.127732,65.0969111 138.695038,65.0969111 C138.1194,65.0969111 137.698301,65.2668957 137.431731,65.6068699 C137.16516,65.9468441 137.031877,66.5166788 137.031877,67.3163909 L137.031877,70.5094283 L135.670055,70.5094283 L135.670055,64.1001735 L136.736332,64.1001735 L136.927567,64.9404465 L136.997107,64.9404465 C137.190274,64.6352424 137.464567,64.3995819 137.819995,64.2334582 C138.175422,64.0673344 138.569478,63.9842738 139.002172,63.9842738 C140.539783,63.9842738 141.308577,64.7665891 141.308577,66.3312432 L141.308577,70.5094283 Z M145.804713,70.625328 C144.807971,70.625328 144.028553,70.3346158 143.466436,69.7531826 C142.90432,69.1717494 142.623266,68.3710835 142.623266,67.3511608 C142.623266,66.3041947 142.884038,65.4813149 143.405589,64.8824966 C143.92714,64.2836784 144.64378,63.9842738 145.555529,63.9842738 C146.401601,63.9842738 147.069949,64.2411822 147.560594,64.7550069 C148.051239,65.2688316 148.296557,65.9758129 148.296557,66.8759719 L148.296557,67.6119352 L144.025652,67.6119352 C144.044969,68.2339335 144.213022,68.712015 144.529816,69.0461943 C144.84661,69.3803735 145.29282,69.5474606 145.868458,69.5474606 C146.247066,69.5474606 146.599591,69.5117252 146.926043,69.4402533 C147.252496,69.3687815 147.603089,69.2499854 147.977833,69.0838617 L147.977833,70.190704 C147.645586,70.3491011 147.30948,70.4611364 146.969506,70.5268132 C146.629531,70.5924901 146.241271,70.625328 145.804713,70.625328 Z M145.555529,65.0157813 C145.122834,65.0157813 144.776105,65.1529279 144.515329,65.4272253 C144.254553,65.7015227 144.099056,66.1013728 144.048832,66.6267875 L146.957916,66.6267875 C146.950189,66.0975094 146.8227,65.6966936 146.575446,65.4243278 C146.328192,65.1519621 145.988223,65.0157813 145.555529,65.0157813 Z M148.991183,73.3605615 C148.581669,73.3605615 148.2417,73.3122705 147.971265,73.2156869 L147.971265,72.1378194 C148.233973,72.2073596 148.502471,72.2421292 148.776769,72.2421292 C149.35627,72.2421292 149.646016,71.9137499 149.646016,71.2569815 L149.646016,64.1001735 L151.007838,64.1001735 L151.007838,71.3497013 C151.007838,72.010333 150.834956,72.5106285 150.489187,72.8506027 C150.143418,73.190577 149.644088,73.3605615 148.991183,73.3605615 Z M149.564887,62.4022425 C149.564887,62.1588519 149.631528,61.9714825 149.764814,61.8401288 C149.898099,61.7087752 150.088366,61.6430993 150.33562,61.6430993 C150.575147,61.6430993 150.761551,61.7087752 150.894836,61.8401288 C151.028121,61.9714825 151.094763,62.1588519 151.094763,62.4022425 C151.094763,62.6340431 151.028121,62.8165834 150.894836,62.9498687 C150.761551,63.0831541 150.575147,63.1497957 150.33562,63.1497957 C150.088366,63.1497957 149.898099,63.0831541 149.764814,62.9498687 C149.631528,62.8165834 149.564887,62.6340431 149.564887,62.4022425 Z M158.442033,67.2932109 C158.442033,68.340177 158.173535,69.1572619 157.63653,69.7444901 C157.099525,70.3317183 156.351979,70.625328 155.39387,70.625328 C154.795052,70.625328 154.265782,70.490113 153.806044,70.219679 C153.346306,69.9492449 152.992815,69.5609847 152.745561,69.0548867 C152.498307,68.5487887 152.374682,67.9615693 152.374682,67.2932109 C152.374682,66.2539715 152.641249,65.4426815 153.17439,64.8593167 C153.707532,64.2759518 154.458941,63.9842738 155.42864,63.9842738 C156.355843,63.9842738 157.089867,64.2827126 157.630735,64.8795991 C158.171603,65.4764857 158.442033,66.2810149 158.442033,67.2932109 Z M153.777069,67.2932109 C153.777069,68.7728715 154.323724,69.5126907 155.41705,69.5126907 C156.498786,69.5126907 157.039646,68.7728715 157.039646,67.2932109 C157.039646,65.8290037 156.494923,65.0969111 155.40546,65.0969111 C154.833685,65.0969111 154.419348,65.2862121 154.162436,65.6648198 C153.905523,66.0434274 153.777069,66.5862191 153.777069,67.2932109 Z" id="by-Dimitri-Conejo" fill="#AAB2BD"></path>
                <path d="M8.19131891,13.0689573 C8.19131891,11.3468583 8.19131891,9.40949701 7.76079418,7.68739807 C6.57685116,9.40949701 5.17764577,21.4641896 4.63948985,24.3702316 L4.9623834,24.4778627 L5.17764577,25.4465434 L5.39290814,25.0160187 C6.36158879,21.7870831 8.19131891,16.405524 8.19131891,13.0689573 Z M29.3732227,35.6203003 C29.0007826,35.8839396 28.6103494,36.1174778 28.2107191,36.317293 C24.7665212,38.1470231 20.6765362,37.7164984 16.9094448,37.7164984 C15.4026082,37.7164984 13.7881405,37.8241295 12.2813039,38.3622855 C12.3889351,40.8378027 14.9720835,43.0980575 16.1560265,45.0354188 C18.3086502,48.3719855 21.107061,58.2740545 21.107061,62.2564083 C21.107061,63.6556136 20.9994298,64.9471879 20.7841674,66.2387621 C20.3536427,69.144804 20.6765362,71.9432148 20.0307491,74.7416256 C18.9544373,79.69266 16.6941824,89.7023601 10.2363114,89.7023601 C8.40658128,89.7023601 6.36158879,87.87263 5.6081705,86.3657934 C1.30292315,78.2934546 0.334242496,52.4619705 0.334242496,43.5285823 C0.334242496,39.2233349 0.872398415,35.1333499 1.19529197,30.8281026 C1.84107907,23.4015509 2.05634144,15.867368 2.91739091,8.33318517 C3.13265328,6.61108623 5.17764577,0.69137112 7.11500708,0.69137112 C9.26763075,0.69137112 11.0973609,5.21188084 11.0973609,7.04161096 C11.0973609,7.90266043 10.8820985,8.65607872 10.7744673,9.51712819 C10.9897297,10.59344 11.0973609,11.6697519 11.0973609,12.6384325 C11.0973609,17.1589422 9.26763075,21.2489272 8.19131891,25.5541746 C7.43790063,28.5678477 5.82343287,31.2586273 4.9623834,34.1646693 C4.42422748,35.779137 4.10133393,45.14305 4.10133393,47.1880425 C4.10133393,56.6595867 4.53185866,66.2387621 5.93106405,75.6026751 C6.25395761,77.4324052 7.00737589,79.2621353 7.653163,81.0918654 C8.08368773,82.3834396 8.51421247,85.6123751 10.2363114,85.6123751 C11.2049921,85.6123751 12.8194598,84.8589569 13.2499846,83.8902762 C15.7255018,79.5850289 17.9857566,73.8805761 17.9857566,68.8219105 C17.9857566,66.6692868 18.201019,64.6242943 18.201019,62.4716706 C18.201019,56.0137996 15.833133,50.2017157 12.4965663,44.7125253 C11.2049921,42.6675328 10.021049,40.2996468 8.19131891,38.685179 C7.653163,38.2546543 7.22263826,37.501236 7.22263826,36.7478177 C7.22263826,35.2409811 8.62184365,34.4875628 10.021049,34.4875628 C12.6041975,34.4875628 15.0797147,35.8867682 17.7704943,35.8867682 C24.5040828,35.8867682 28.2374299,31.8095172 31.0517571,30.4189848 C30.6089205,31.3508058 30.295736,32.1010748 30.1122034,32.6697917 C29.9227283,33.2569227 29.6764014,34.2404255 29.3732227,35.6203003 Z M40.4806741,33.7341445 C40.4806741,32.5502015 38.7585751,28.137323 37.4670009,28.137323 C37.0364762,28.137323 36.6059514,28.6754789 36.3906891,28.9983725 C32.83886,32.7654639 32.5159665,38.2546543 31.7625482,43.0980575 L32.0854417,43.2056887 C32.0854417,43.959107 32.4083353,44.7125253 32.6235976,45.4659436 C33.2693847,45.2506812 33.9151718,45.14305 34.3456966,44.8201565 C36.4983203,43.0980575 40.4806741,36.317293 40.4806741,33.7341445 Z M58.5216731,34.9929719 C55.4864673,40.3072064 50.517625,48.2643544 47.5843322,48.2643544 C42.0951418,48.2643544 42.9561913,39.9767532 42.9561913,36.7478177 L42.9561913,36.1020306 C40.6959364,39.3309661 36.8212138,49.8788221 31.7625482,49.8788221 C28.748875,49.8788221 28.3183503,44.4972629 28.3183503,42.2370081 C28.3183503,37.501236 31.654917,23.5091821 37.6822633,23.5091821 C39.4043622,23.5091821 40.9111988,27.9220606 42.3104042,29.1060036 C43.1714537,27.9220606 44.8935526,22.2176079 46.1851268,22.2176079 C47.2614386,22.2176079 48.2301193,23.8320756 48.2301193,24.8007563 C48.2301193,29.8594219 46.0774956,36.2096618 46.0774956,41.3759586 C46.0774956,42.1293769 46.6156515,44.9277877 47.5843322,44.9277877 C50.1867851,44.9277877 55.4084113,35.3678049 58.2441036,30.8035088 L58.5216731,34.9929719 Z M72.9852916,24.2626004 L73.2005539,23.4015509 L72.662398,20.1726154 L72.3395045,19.8497218 L72.1242421,20.1726154 C72.0166109,20.8184025 71.8013485,21.3565584 71.8013485,22.1099767 C71.8013485,23.1862885 72.2318733,23.5091821 72.9852916,24.2626004 Z M84.2865659,28.7831101 C83.5596845,29.0078992 83.0414603,29.3307927 82.7318932,29.7517907 C82.3188479,30.3135148 81.7531534,31.4647043 81.0348098,33.2053593 C80.6862531,33.4254821 80.3318112,33.6356036 79.9813185,33.8417757 L79.5507938,33.8417757 C78.4744819,33.8417757 77.5058013,34.0570381 76.4294894,34.0570381 C75.7837023,34.0570381 75.56844,34.8104564 75.4608088,35.2409811 C75.2455464,36.4249241 74.8150217,37.2859736 74.7073905,38.5775478 C74.2768658,43.0980575 72.3395045,51.9238146 66.4197894,51.9238146 C59.4237624,51.9238146 58.2398194,34.3799317 58.2398194,29.4288972 C58.2398194,28.4602165 58.9932377,27.7067983 59.8542871,27.7067983 C60.930599,27.7067983 61.7916485,28.7831101 61.7916485,29.7517907 C62.114542,33.0883574 62.4374356,48.4796167 66.9579453,48.4796167 C69.9716184,48.4796167 71.9089797,41.053065 72.1242421,38.685179 C72.3395045,36.317293 73.4158163,33.6265134 73.4158163,31.2586273 C73.4158163,29.7517907 68.3571507,26.1999617 68.3571507,21.2489272 C68.3571507,19.7420907 69.9716184,14.683425 71.8013485,14.683425 C75.7837023,14.683425 74.9226529,28.6754789 76.8600142,30.3975779 C77.6134325,30.9357338 77.936326,31.1509961 78.9050067,31.1509961 C80.5194744,31.1509961 81.8110486,28.8907413 83.7484099,28.4602165 L84.2865659,28.7831101 Z M99.2971371,34.8108061 C95.8379939,39.7612116 90.1356593,46.3494012 88.3765509,48.6948791 C87.7307638,49.5559286 86.7620831,50.5246092 85.4705089,50.5246092 C81.3805239,50.5246092 79.9813185,42.4522704 79.9813185,39.4385973 C79.9813185,36.7478177 81.2728927,28.6754789 84.932353,28.6754789 C86.0086648,28.6754789 86.2239272,29.5365284 86.2239272,30.3975779 C86.2239272,34.4875628 83.9636723,37.9317607 83.9636723,42.2370081 C83.9636723,43.3133199 84.3941971,46.5422554 85.9010336,46.5422554 C89.4079029,46.5422554 96.0799187,33.644283 100.082225,30.0343609 C99.6437196,31.2748686 99.3820236,32.1533455 99.2971371,32.6697917 C99.2075596,33.2147778 99.2075596,33.9284492 99.2971371,34.8108061 Z M87.4078702,20.4955089 C87.4078702,21.3565584 86.2239272,23.1862885 85.3628777,23.1862885 C84.1789347,23.1862885 83.4255164,21.2489272 83.4255164,20.3878778 C83.4255164,19.5268283 84.2865659,18.4505164 85.0399842,18.4505164 C86.0086648,18.4505164 87.4078702,19.5268283 87.4078702,20.4955089 Z M119.316865,36.455775 C115.985068,41.4900738 110.98754,46.5422554 107.42727,46.5422554 C101.93808,46.5422554 99.2473004,37.9317607 99.2473004,33.5188822 C99.2473004,30.1823155 103.122023,23.4015509 106.781483,23.4015509 C109.149369,23.4015509 111.301993,25.9846993 111.301993,28.2449542 C111.301993,29.321266 110.333312,31.1509961 109.149369,31.1509961 C107.965426,31.1509961 107.319639,28.5678477 107.104377,27.4915359 C104.62886,29.5365284 103.983073,32.227308 103.983073,35.2409811 C103.983073,37.501236 104.305966,42.8827952 107.534902,42.8827952 C107.965426,42.8827952 108.28832,42.775164 108.718845,42.5599016 C117.914553,39.2614411 118.848995,30.3007649 122.038779,28.952934 C120.840119,31.4270219 120.095478,33.0646085 119.804857,33.8656938 C119.490608,34.7319065 119.327944,35.5952669 119.316865,36.455775 Z M143.244114,32.2857913 C140.27414,33.6918014 136.272428,35.0643761 136.272428,37.501236 C136.272428,39.1157037 136.702952,40.5149091 136.702952,42.1293769 C136.702952,46.865149 134.227435,52.7848641 128.738245,52.7848641 C127.016146,52.7848641 125.724572,51.9238146 124.432997,50.8475028 C120.12775,47.0804113 119.266701,42.8827952 119.266701,37.3936048 C119.266701,31.2586273 125.078785,22.6481326 130.9985,22.6481326 C131.536656,22.6481326 132.290074,22.863395 132.290074,23.4015509 C132.290074,24.9083875 128.092458,26.3075929 127.123777,27.4915359 C124.540629,30.6128402 123.033792,35.2409811 123.033792,39.2233349 C123.033792,42.8827952 124.755891,49.7711909 129.384032,49.7711909 C132.935861,49.7711909 134.119804,45.0354188 134.119804,42.2370081 C134.119804,40.9454339 134.119804,36.7478177 132.505336,36.6401865 C131.96718,36.6401865 131.429024,36.8554489 130.890868,36.8554489 C129.384032,36.8554489 128.092458,35.3486123 128.092458,33.8417757 C128.092458,32.6578327 130.245081,30.2899467 131.429024,30.2899467 C133.151123,30.2899467 134.442698,32.227308 135.303747,32.227308 C135.519009,32.227308 136.057165,31.9044144 136.272428,31.7967832 C136.679696,31.4709687 141.217035,29.7273685 143.586647,28.898501 L143.244114,32.2857913 Z M174.158604,32.5502015 C173.943342,38.3622855 170.068619,48.4796167 166.193897,53.0001265 C165.117585,54.3993318 163.180224,54.506963 161.565756,54.506963 C160.812338,54.506963 159.951288,54.2917007 159.305501,53.9688071 C153.385786,50.955134 154.462098,43.8514758 153.493417,38.3622855 L153.170524,37.9317607 L152.84763,38.1470231 C150.372113,42.8827952 148.972907,45.5735748 148.972907,51.0627651 C148.972907,52.4619705 147.788964,53.7535447 146.389759,53.7535447 C142.945561,53.7535447 143.376086,44.2820006 143.376086,42.0217457 C143.376086,40.9454339 142.945561,39.9767532 142.945561,38.9004414 C142.945561,34.1646693 143.591348,25.8770681 144.990554,21.3565584 C145.205816,20.6031401 145.636341,20.0649842 146.49739,20.0649842 C147.35844,20.0649842 148.111858,20.3878778 148.111858,21.2489272 C148.111858,26.3075929 146.820284,31.4738897 146.820284,36.5325553 C146.820284,38.2546543 146.712652,40.9454339 147.250808,42.5599016 C148.757645,41.053065 152.201843,32.4425703 154.031573,32.4425703 C158.874976,32.4425703 155.861303,50.6322404 161.996281,50.6322404 C165.871003,50.6322404 171.360194,37.8241295 172.113612,34.4875628 C172.328874,33.9494069 172.436505,33.411251 172.759399,32.9807263 C172.974661,32.6578327 173.297555,32.4425703 173.72808,32.4425703 C173.835711,32.4425703 174.050973,32.5502015 174.158604,32.5502015 Z" id="favicon" fill="#6BB9F0"></path>
            </g>
        </g>
    </g>
</svg>