<?xml version="1.0" encoding="UTF-8" standalone="no"?>
<svg width="165px" height="38px" viewBox="0 0 165 38" version="1.1" xmlns="http://www.w3.org/2000/svg" xmlns:xlink="http://www.w3.org/1999/xlink" xmlns:sketch="http://www.bohemiancoding.com/sketch/ns">
    <!-- Generator: Sketch 3.4.2 (15855) - http://www.bohemiancoding.com/sketch -->
    <title>LOGO</title>
    <desc>Created with Sketch.</desc>
    <defs></defs>
    <g id="Page-1" stroke="none" stroke-width="1" fill="none" fill-rule="evenodd" sketch:type="MSPage">
        <g id="INDEX" sketch:type="MSArtboardGroup" transform="translate(-617.000000, -35.000000)">
            <g id="web" sketch:type="MSLayerGroup" transform="translate(-1.000000, 0.000000)">
                <g id="LOGO" transform="translate(618.000000, 30.000000)" sketch:type="MSShapeGroup">
                    <path d="M21.3831019,35.1851852 L18.9525463,35.1851852 L14.6846065,21.021412 C14.4820592,20.3944799 14.2554025,19.6035927 14.0046296,18.6487269 C13.7538568,17.693861 13.6236497,17.1199855 13.6140046,16.9270833 C13.4018122,18.2002378 13.0642384,19.5939353 12.6012731,21.1082176 L8.46354167,35.1851852 L6.03298611,35.1851852 L0.405092593,14.0335648 L3.00925926,14.0335648 L6.35127315,27.0978009 C6.81423843,28.9303718 7.15181221,30.5893058 7.36400463,32.0746528 C7.6244226,30.3095977 8.01022121,28.5831489 8.52141204,26.8952546 L12.3119213,14.0335648 L14.916088,14.0335648 L18.8946759,27.0109954 C19.3576412,28.5059874 19.7482623,30.1938563 20.0665509,32.0746528 C20.249808,30.7050472 20.5970268,29.0364682 21.1082176,27.0688657 L24.4357639,14.0335648 L27.0399306,14.0335648 L21.3831019,35.1851852 Z M31.6967593,35.1851852 L31.6967593,14.0335648 L34.15625,14.0335648 L34.15625,35.1851852 L31.6967593,35.1851852 Z M49.318287,35.1851852 L42.1423611,16.4351852 L42.0266204,16.4351852 C42.1616519,17.9205321 42.2291667,19.6855608 42.2291667,21.7303241 L42.2291667,35.1851852 L39.9577546,35.1851852 L39.9577546,14.0335648 L43.6614583,14.0335648 L50.3599537,31.4814815 L50.4756944,31.4814815 L57.2320602,14.0335648 L60.9068287,14.0335648 L60.9068287,35.1851852 L58.447338,35.1851852 L58.447338,21.556713 C58.447338,19.9942052 58.5148527,18.2966913 58.6498843,16.4641204 L58.5341435,16.4641204 L51.3003472,35.1851852 L49.318287,35.1851852 Z" id="WEBIM" fill="#30363D"></path>
                    <path d="M152.551794,35.1851852 L152.551794,14.0335648 L155.011285,14.0335648 L155.011285,32.9571759 L164.342882,32.9571759 L164.342882,35.1851852 L152.551794,35.1851852 Z" id="L" fill="#30363D"></path>
                    <g id="g285" transform="translate(71.222222, 5.555556)">
                        <g id="Page-1">
                            <g>
                                <g id="g285">
                                    <path d="M34.8091168,16.3098291 C31.5021368,15.6737892 29.985755,11.8098291 31.977208,9.09472934 L33.3760684,7.18660969 L30.3539886,4.16524217 L28.4750712,5.43732194 C25.6873219,7.32621083 21.8831909,5.66595442 21.3710826,2.33831909 L21.011396,0 L16.7378917,0 L16.1844729,2.87820513 C15.5626781,6.11182336 11.8361823,7.65527066 9.10897436,5.80840456 L6.68304843,4.16524217 L3.66096866,7.18660969 L5.05982906,9.09472934 C7.05128205,11.8098291 5.53490028,15.6737892 2.22792023,16.3098291 L0,16.7378917 L0,21.011396 L2.33831909,21.3710826 C5.66595442,21.8831909 7.32621083,25.6880342 5.43732194,28.4757835 L4.16452991,30.3539886 L7.18660969,33.3760684 L9.09401709,31.977208 C11.8098291,29.985755 15.6737892,31.5021368 16.3091168,34.8091168 L16.7378917,37.037037 L21.011396,37.037037 L21.264245,35.3924501 C21.7877493,31.9907407 25.732906,30.3568376 28.508547,32.3917379 L29.8504274,33.3760684 L32.8717949,30.3539886 L31.5997151,28.4757835 C29.7108262,25.6880342 31.3710826,21.8831909 34.6987179,21.3710826 L37.037037,21.011396 L37.037037,16.7378917 L34.8091168,16.3098291 L34.8091168,16.3098291 L34.8091168,16.3098291 Z M18.8746439,22.0797721 C17.1047009,22.0797721 15.6695157,20.6452991 15.6695157,18.8746439 C15.6695157,17.1047009 17.1047009,15.6695157 18.8746439,15.6695157 C20.6445869,15.6695157 22.0797721,17.1047009 22.0797721,18.8746439 C22.0797721,20.6452991 20.6445869,22.0797721 18.8746439,22.0797721 L18.8746439,22.0797721 L18.8746439,22.0797721 Z" id="Fill-206" fill="#6BB9F0"></path>
                                    <path d="M18.8746439,12.1082621 C15.1374644,12.1082621 12.1082621,15.1381766 12.1082621,18.8746439 C12.1082621,22.6118234 15.1374644,25.6410256 18.8746439,25.6410256 C22.6118234,25.6410256 25.6410256,22.6118234 25.6410256,18.8746439 C25.6410256,15.1381766 22.6118234,12.1082621 18.8746439,12.1082621 L18.8746439,12.1082621 L18.8746439,12.1082621 Z M18.8746439,22.0797721 C17.1047009,22.0797721 15.6695157,20.6452991 15.6695157,18.8746439 C15.6695157,17.1047009 17.1047009,15.6695157 18.8746439,15.6695157 C20.6445869,15.6695157 22.0797721,17.1047009 22.0797721,18.8746439 C22.0797721,20.6452991 20.6445869,22.0797721 18.8746439,22.0797721 L18.8746439,22.0797721 L18.8746439,22.0797721 Z" id="Fill-2700" stroke="#FFFFFF" fill="#FFFFFF"></path>
                                </g>
                            </g>
                        </g>
                    </g>
                    <g id="g285-copy" transform="translate(125.134000, 24.282148) rotate(-337.000000) translate(-125.134000, -24.282148) translate(106.615481, 5.763629)">
                        <g id="g285" transform="translate(0.000000, -0.000000)">
                            <g id="Page-1" transform="translate(-0.000000, -0.000000)">
                                <g id="g285">
                                    <path d="M34.8091168,16.3098291 C31.5021368,15.6737892 29.985755,11.8098291 31.977208,9.09472934 L33.3760684,7.18660969 L30.3539886,4.16524217 L28.4750712,5.43732194 C25.6873219,7.32621083 21.8831909,5.66595442 21.3710826,2.33831909 L21.011396,-1.84214783e-13 L16.7378917,-1.84214783e-13 L16.1844729,2.87820513 C15.5626781,6.11182336 11.8361823,7.65527066 9.10897436,5.80840456 L6.68304843,4.16524217 L3.66096866,7.18660969 L5.05982906,9.09472934 C7.05128205,11.8098291 5.53490028,15.6737892 2.22792023,16.3098291 L-1.0526559e-13,16.7378917 L-1.0526559e-13,21.011396 L2.33831909,21.3710826 C5.66595442,21.8831909 7.32621083,25.6880342 5.43732194,28.4757835 L4.16452991,30.3539886 L7.18660969,33.3760684 L9.09401709,31.977208 C11.8098291,29.985755 15.6737892,31.5021368 16.3091168,34.8091168 L16.7378917,37.037037 L21.011396,37.037037 L21.264245,35.3924501 C21.7877493,31.9907407 25.732906,30.3568376 28.508547,32.3917379 L29.8504274,33.3760684 L32.8717949,30.3539886 L31.5997151,28.4757835 C29.7108262,25.6880342 31.3710826,21.8831909 34.6987179,21.3710826 L37.037037,21.011396 L37.037037,16.7378917 L34.8091168,16.3098291 L34.8091168,16.3098291 L34.8091168,16.3098291 Z M18.8746439,22.0797721 C17.1047009,22.0797721 15.6695157,20.6452991 15.6695157,18.8746439 C15.6695157,17.1047009 17.1047009,15.6695157 18.8746439,15.6695157 C20.6445869,15.6695157 22.0797721,17.1047009 22.0797721,18.8746439 C22.0797721,20.6452991 20.6445869,22.0797721 18.8746439,22.0797721 L18.8746439,22.0797721 L18.8746439,22.0797721 Z" id="Fill-206" fill="#6BB9F0"></path>
                                    <path d="M18.8746439,12.1082621 C15.1374644,12.1082621 12.1082621,15.1381766 12.1082621,18.8746439 C12.1082621,22.6118234 15.1374644,25.6410256 18.8746439,25.6410256 C22.6118234,25.6410256 25.6410256,22.6118234 25.6410256,18.8746439 C25.6410256,15.1381766 22.6118234,12.1082621 18.8746439,12.1082621 L18.8746439,12.1082621 L18.8746439,12.1082621 Z M18.8746439,22.0797721 C17.1047009,22.0797721 15.6695157,20.6452991 15.6695157,18.8746439 C15.6695157,17.1047009 17.1047009,15.6695157 18.8746439,15.6695157 C20.6445869,15.6695157 22.0797721,17.1047009 22.0797721,18.8746439 C22.0797721,20.6452991 20.6445869,22.0797721 18.8746439,22.0797721 L18.8746439,22.0797721 L18.8746439,22.0797721 Z" id="Fill-2700" stroke="#FFFFFF" fill="#FFFFFF"></path>
                                </g>
                            </g>
                        </g>
                    </g>
                </g>
            </g>
        </g>
    </g>
</svg>