<?xml version="1.0" encoding="UTF-8" standalone="no"?>
<svg width="34px" height="31px" viewBox="0 0 34 31" version="1.1" xmlns="http://www.w3.org/2000/svg" xmlns:xlink="http://www.w3.org/1999/xlink" xmlns:sketch="http://www.bohemiancoding.com/sketch/ns">
    <!-- Generator: Sketch 3.4.2 (15855) - http://www.bohemiancoding.com/sketch -->
    <title>j90</title>
    <desc>Created with Sketch.</desc>
    <defs></defs>
    <g id="Page-1" stroke="none" stroke-width="1" fill="none" fill-rule="evenodd" sketch:type="MSPage">
        <g id="INDEX" sketch:type="MSArtboardGroup" transform="translate(-696.000000, -940.000000)">
            <g id="web" sketch:type="MSLayerGroup" transform="translate(-1.000000, 0.000000)">
                <g id="Creado-con-+-por-Netbroad.-+-j90" transform="translate(576.000000, 940.000000)" sketch:type="MSShapeGroup">
                    <g id="j90" transform="translate(122.000000, 0.000000)">
                        <g id="Page-1">
                            <g>
                                <g id="j90">
                                    <path d="M22.593,9 L6.207,9 C2.4576,11.4372 0,16.6986 0,21.3 C0,25.275 1.8336,28.1664 4.7502,30 L24.0498,30 C26.9664,28.1664 28.8,25.275 28.8,21.3 C28.8,16.6986 26.3424,11.4372 22.593,9 L22.593,9 L22.593,9 Z" id="Fill-2031" fill="#DAE7EF"></path>
                                    <path d="M22.593,9 L6.207,9 C2.4576,11.4372 0,16.6986 0,21.3 C0,25.275 1.8336,28.1664 4.7502,30 L24.0498,30 C26.9664,28.1664 28.8,25.275 28.8,21.3 C28.8,16.6986 26.3424,11.4372 22.593,9 L22.593,9 L22.593,9 Z" id="Stroke-2032" stroke="#BBD7EB" stroke-width="2"></path>
                                    <path d="M18.6,7.2 L18.6,6 L6,6 L6,9 L22.8,9 L22.8,7.5192 C22.8,7.3428 22.6572,7.2 22.4808,7.2 L18.6,7.2" id="Fill-2033" fill="#E6E6E6"></path>
                                    <path d="M20.1798,4.2 L21.2202,4.2 C22.0926,4.2 22.8,3.4926 22.8,2.6202 L22.8,0 L2.4,2.4 L6,6 L18.6,6 L18.6,5.7792 C18.6,4.9074 19.3074,4.2 20.1798,4.2" id="Fill-2034" fill="#546A79"></path>
                                    <path d="M21.69,4.2 L20.1798,4.2 C19.3074,4.2 18.6,4.9074 18.6,5.7792 L18.6,7.2 L22.0386,7.2 C26.1582,7.2 29.7246,10.3272 29.9826,14.439 C29.9934,14.6154 29.9994,14.7948 30,14.9772 C30.0012,15.555 30.4158,16.0824 30.9846,16.1814 C31.7418,16.3128 32.4,15.7332 32.4,15 C32.4,14.9046 32.3994,14.8104 32.3982,14.7168 C32.3166,8.8764 27.5304,4.2 21.69,4.2" id="Fill-2035" fill="#38454F"></path>
                                    <path d="M4.7502,30 L24.0498,30 C26.3412,28.5594 27.9594,26.463 28.5498,23.7036 C27.5508,22.9746 26.1168,23.0316 25.2,23.8962 C24.2052,24.8346 22.5948,24.8346 21.6,23.8962 C20.6052,22.9584 18.9948,22.9584 18,23.8962 C17.0052,24.8346 15.3948,24.8346 14.4,23.8962 C13.4052,22.9584 11.7948,22.9584 10.8,23.8962 C9.8052,24.8346 8.1948,24.8346 7.2,23.8962 C6.2052,22.9584 4.5948,22.9584 3.6,23.8962 C2.7168,24.729 1.3512,24.8184 0.3594,24.1734 C1.0266,26.7024 2.5902,28.6422 4.7502,30" id="Fill-2036" fill="#4C312C"></path>
                                    <path d="M10.2,19.8 L6,19.8 M10.2,17.4 L7.2,17.4 M10.2,15 L6,15 M10.2,12.6 L7.2,12.6" id="Stroke-2037" stroke="#BBD7EB" stroke-width="4"></path>
                                </g>
                            </g>
                        </g>
                    </g>
                </g>
            </g>
        </g>
    </g>
</svg>