<?xml version="1.0" encoding="UTF-8" standalone="no"?>
<svg width="77px" height="77px" viewBox="0 0 77 77" version="1.1" xmlns="http://www.w3.org/2000/svg" xmlns:xlink="http://www.w3.org/1999/xlink" xmlns:sketch="http://www.bohemiancoding.com/sketch/ns">
    <!-- Generator: Sketch 3.4.2 (15855) - http://www.bohemiancoding.com/sketch -->
    <title>w20</title>
    <desc>Created with Sketch.</desc>
    <defs></defs>
    <g id="Page-1" stroke="none" stroke-width="1" fill="none" fill-rule="evenodd" sketch:type="MSPage">
        <g id="INDEX" sketch:type="MSArtboardGroup" transform="translate(-1128.000000, -339.000000)">
            <g id="web" sketch:type="MSLayerGroup" transform="translate(-1.000000, 0.000000)">
                <g id="Group" transform="translate(1017.000000, 340.000000)" sketch:type="MSShapeGroup">
                    <g id="w20" transform="translate(113.000000, 0.000000)">
                        <path d="M53.712931,75 L21.287069,75 C19.1715517,75 17.4568966,73.2853448 17.4568966,71.1698276 L17.4568966,3.83017241 C17.4568966,1.71465517 19.1715517,0 21.287069,0 L53.712931,0 C55.8284483,0 57.5431034,1.71465517 57.5431034,3.83017241 L57.5431034,71.1698276 C57.5431034,73.2853448 55.8284483,75 53.712931,75 L53.712931,75 L53.712931,75 Z" id="Fill-680"></path>
                        <path d="M53.712931,75 L21.287069,75 C19.1715517,75 17.4568966,73.2853448 17.4568966,71.1698276 L17.4568966,3.83017241 C17.4568966,1.71465517 19.1715517,0 21.287069,0 L53.712931,0 C55.8284483,0 57.5431034,1.71465517 57.5431034,3.83017241 L57.5431034,71.1698276 C57.5431034,73.2853448 55.8284483,75 53.712931,75 L53.712931,75 L53.712931,75 Z" id="Stroke-681" stroke="#6BB9F0" stroke-width="2"></path>
                        <path d="M17.4568966,7.75862069 L57.5431034,7.75862069 L57.5431034,63.362069 L17.4568966,63.362069 L17.4568966,7.75862069 L17.4568966,7.75862069 Z" id="Fill-682"></path>
                        <path d="M17.4568966,7.75862069 L57.5431034,7.75862069 L57.5431034,63.362069 L17.4568966,63.362069 L17.4568966,7.75862069 L17.4568966,7.75862069 Z" id="Stroke-683" stroke="#6BB9F0" stroke-width="2"></path>
                        <path d="M40.7327586,69.1810345 C40.7327586,70.9668103 39.2857759,72.4137931 37.5,72.4137931 C35.7142241,72.4137931 34.2672414,70.9668103 34.2672414,69.1810345 C34.2672414,67.3952586 35.7142241,65.9482759 37.5,65.9482759 C39.2857759,65.9482759 40.7327586,67.3952586 40.7327586,69.1810345" id="Fill-685" fill="#6BB9F0"></path>
                        <path d="M17.4568966,71.1698276 L17.4568966,11.7181034 L3.6762931,11.7181034 C1.89181034,11.7181034 0.444827586,13.1650862 0.444827586,14.949569 L0.444827586,71.7685345 C0.444827586,73.5530172 1.89181034,75 3.6762931,75 L21.287069,75 C19.1715517,75 17.4568966,73.2853448 17.4568966,71.1698276 L17.4568966,71.1698276 L17.4568966,71.1698276 Z" id="Fill-687"></path>
                        <path d="M17.4568966,71.1698276 L17.4568966,11.7181034 L3.6762931,11.7181034 C1.89181034,11.7181034 0.444827586,13.1650862 0.444827586,14.949569 L0.444827586,71.7685345 C0.444827586,73.5530172 1.89181034,75 3.6762931,75 L21.287069,75 C19.1715517,75 17.4568966,73.2853448 17.4568966,71.1698276 L17.4568966,71.1698276 L17.4568966,71.1698276 Z" id="Stroke-688" stroke="#6BB9F0" stroke-width="2"></path>
                        <path d="M0.646551724,65.9482759 L17.4568966,65.9482759 L17.4568966,19.3965517 L0.646551724,19.3965517 L0.646551724,65.9482759 L0.646551724,65.9482759 Z" id="Fill-689" fill="#C6E3F8"></path>
                        <path d="M0.646551724,65.9482759 L17.4568966,65.9482759 L17.4568966,19.3965517 L0.646551724,19.3965517 L0.646551724,65.9482759 L0.646551724,65.9482759 Z" id="Stroke-690" stroke="#6BB9F0" stroke-width="2"></path>
                        <path d="M71.1413793,11.637931 L57.5431034,11.637931 L57.5431034,71.1698276 C57.5431034,73.2853448 55.8284483,75 53.712931,75 L71.1413793,75 C72.9155172,75 74.3534483,73.5517241 74.3534483,71.7646552 L74.3534483,14.8732759 C74.3534483,13.0862069 72.9155172,11.637931 71.1413793,11.637931 L71.1413793,11.637931 L71.1413793,11.637931 Z" id="Fill-691"></path>
                        <path d="M71.1413793,11.637931 L57.5431034,11.637931 L57.5431034,71.1698276 C57.5431034,73.2853448 55.8284483,75 53.712931,75 L71.1413793,75 C72.9155172,75 74.3534483,73.5517241 74.3534483,71.7646552 L74.3534483,14.8732759 C74.3534483,13.0862069 72.9155172,11.637931 71.1413793,11.637931 L71.1413793,11.637931 L71.1413793,11.637931 Z" id="Stroke-692" stroke="#6BB9F0" stroke-width="2"></path>
                        <path d="M57.5431034,65.9482759 L74.3534483,65.9482759 L74.3534483,19.3965517 L57.5431034,19.3965517 L57.5431034,65.9482759 L57.5431034,65.9482759 Z" id="Fill-693" fill="#C6E3F8"></path>
                        <path d="M57.5431034,65.9482759 L74.3534483,65.9482759 L74.3534483,19.3965517 L57.5431034,19.3965517 L57.5431034,65.9482759 L57.5431034,65.9482759 Z" id="Stroke-694" stroke="#6BB9F0" stroke-width="2"></path>
                        <path d="M23.9224138,19.3965517 L29.0948276,14.2241379 M23.9224138,25.862069 L26.5086207,23.2758621 M31.6810345,18.1034483 L35.5603448,14.2241379 M23.9224138,32.3275862 L35.5603448,20.6896552 M40.7327586,15.5172414 L42.0258621,14.2241379" id="Stroke-695" stroke="#6BB9F0" stroke-width="2" stroke-linecap="round"></path>
                    </g>
                </g>
            </g>
        </g>
    </g>
</svg>