<?xml version="1.0" encoding="UTF-8" standalone="no"?>
<svg width="77px" height="77px" viewBox="0 0 77 77" version="1.1" xmlns="http://www.w3.org/2000/svg" xmlns:xlink="http://www.w3.org/1999/xlink" xmlns:sketch="http://www.bohemiancoding.com/sketch/ns">
    <!-- Generator: Sketch 3.4.2 (15855) - http://www.bohemiancoding.com/sketch -->
    <title>Page-1</title>
    <desc>Created with Sketch.</desc>
    <defs></defs>
    <g id="Page-1" stroke="none" stroke-width="1" fill="none" fill-rule="evenodd" sketch:type="MSPage">
        <g id="INDEX" sketch:type="MSArtboardGroup" transform="translate(-194.000000, -339.000000)">
            <g id="web" sketch:type="MSLayerGroup" transform="translate(-1.000000, 0.000000)">
                <g id="Group" transform="translate(83.000000, 340.000000)" sketch:type="MSShapeGroup">
                    <g id="Page-1" transform="translate(113.000000, 0.000000)">
                        <path d="M69.0049843,75 C72.3159401,75 75,72.3085976 75,69.0049843 L75,5.99501566 C75,2.68405993 72.3085976,0 69.0049843,0 L5.99501566,0 C2.68405993,0 0,2.69140241 0,5.99501566 L0,75 L69.0049843,75 Z" id="Fill-443"></path>
                        <path d="M70.9941896,75 C73.2065376,75 75,73.2016689 75,70.9941896 L75,4.00581045 C75,1.79346243 73.2016689,0 70.9941896,0 L4.00581045,0 C1.79346243,0 0,1.79833109 0,4.00581045 L0,70.9941896 C0,73.2065376 1.79833109,75 4.00581045,75 L70.9941896,75 Z" id="Stroke-444" stroke="#6BB9F0" stroke-width="2" stroke-linecap="round"></path>
                        <g id="Group" transform="translate(36.578947, 36.184211) scale(-1, -1) translate(-36.578947, -36.184211) translate(16.578947, 23.684211)">
                            <path d="M14.4736842,17.7631579 C14.4736842,21.7605263 11.2342105,25 7.23684211,25 C3.23947368,25 0,21.7605263 0,17.7631579 C0,13.7657895 3.23947368,10.5263158 7.23684211,10.5263158 C11.2342105,10.5263158 14.4736842,13.7657895 14.4736842,17.7631579 L14.4736842,17.7631579 L14.4736842,17.7631579 Z" id="Fill-448" fill="#D0E8F9"></path>
                            <path d="M14.4736842,17.7631579 C14.4736842,21.7605263 11.2342105,25 7.23684211,25 C3.23947368,25 0,21.7605263 0,17.7631579 C0,13.7657895 3.23947368,10.5263158 7.23684211,10.5263158 C11.2342105,10.5263158 14.4736842,13.7657895 14.4736842,17.7631579 L14.4736842,17.7631579 L14.4736842,17.7631579 Z" id="Stroke-449" stroke="#6BB9F0" stroke-width="2"></path>
                            <path d="M36.8421053,17.7631579 C36.8421053,21.7605263 33.6026316,25 29.6052632,25 C25.6078947,25 22.3684211,21.7605263 22.3684211,17.7631579 C22.3684211,13.7657895 25.6078947,10.5263158 29.6052632,10.5263158 C33.6026316,10.5263158 36.8421053,13.7657895 36.8421053,17.7631579 L36.8421053,17.7631579 L36.8421053,17.7631579 Z" id="Fill-450" fill="#D0E8F9"></path>
                            <path d="M36.8421053,17.7631579 C36.8421053,21.7605263 33.6026316,25 29.6052632,25 C25.6078947,25 22.3684211,21.7605263 22.3684211,17.7631579 C22.3684211,13.7657895 25.6078947,10.5263158 29.6052632,10.5263158 C33.6026316,10.5263158 36.8421053,13.7657895 36.8421053,17.7631579 L36.8421053,17.7631579 L36.8421053,17.7631579 Z" id="Stroke-451" stroke="#6BB9F0" stroke-width="2"></path>
                            <path d="M0,17.1052632 C0,7.65 7.65,0 17.1052632,0" id="Path" stroke="#6BB9F0" stroke-width="2" stroke-linecap="round"></path>
                            <path d="M22.3684211,17.1052632 C22.3684211,7.65 30.0197368,0 39.4736842,0" id="Path" stroke="#6BB9F0" stroke-width="2" stroke-linecap="round"></path>
                        </g>
                    </g>
                </g>
            </g>
        </g>
    </g>
</svg>