<?xml version="1.0" encoding="UTF-8" standalone="no"?>
<svg width="44px" height="77px" viewBox="0 0 44 77" version="1.1" xmlns="http://www.w3.org/2000/svg" xmlns:xlink="http://www.w3.org/1999/xlink" xmlns:sketch="http://www.bohemiancoding.com/sketch/ns">
    <!-- Generator: Sketch 3.4.2 (15855) - http://www.bohemiancoding.com/sketch -->
    <title>g362</title>
    <desc>Created with Sketch.</desc>
    <defs></defs>
    <g id="Page-1" stroke="none" stroke-width="1" fill="none" fill-rule="evenodd" sketch:type="MSPage">
        <g id="INDEX" sketch:type="MSArtboardGroup" transform="translate(-677.000000, -341.000000)">
            <g id="web" sketch:type="MSLayerGroup" transform="translate(-1.000000, 0.000000)">
                <g id="Group" transform="translate(550.000000, 342.000000)" sketch:type="MSShapeGroup">
                    <g id="g362" transform="translate(129.000000, 0.000000)">
                        <path d="M36.9762931,75 L4.40301724,75 C1.97198276,75 0,73.0280172 0,70.5969828 L0,4.40301724 C0,1.97198276 1.97198276,0 4.40301724,0 L36.9762931,0 C39.4073276,0 41.3793103,1.97198276 41.3793103,4.40301724 L41.3793103,70.5969828 C41.3793103,73.0280172 39.4073276,75 36.9762931,75 L36.9762931,75 L36.9762931,75 Z" id="Fill-28" fill="#FFFFFF"></path>
                        <path d="M36.9762931,75 L4.40301724,75 C1.97198276,75 0,73.0280172 0,70.5969828 L0,4.40301724 C0,1.97198276 1.97198276,0 4.40301724,0 L36.9762931,0 C39.4073276,0 41.3793103,1.97198276 41.3793103,4.40301724 L41.3793103,70.5969828 C41.3793103,73.0280172 39.4073276,75 36.9762931,75 L36.9762931,75 L36.9762931,75 Z" id="Stroke-29" stroke="#6BB9F0" stroke-width="2"></path>
                        <path d="M24.5689655,67.2413793 C24.5689655,69.3840517 22.8323276,71.1206897 20.6896552,71.1206897 C18.5469828,71.1206897 16.8103448,69.3840517 16.8103448,67.2413793 C16.8103448,65.0987069 18.5469828,63.362069 20.6896552,63.362069 C22.8323276,63.362069 24.5689655,65.0987069 24.5689655,67.2413793 L24.5689655,67.2413793 L24.5689655,67.2413793 Z" id="Fill-30" fill="#C6E3F8"></path>
                        <path d="M24.5689655,67.2413793 C24.5689655,69.3840517 22.8323276,71.1206897 20.6896552,71.1206897 C18.5469828,71.1206897 16.8103448,69.3840517 16.8103448,67.2413793 C16.8103448,65.0987069 18.5469828,63.362069 20.6896552,63.362069 C22.8323276,63.362069 24.5689655,65.0987069 24.5689655,67.2413793 L24.5689655,67.2413793 L24.5689655,67.2413793 Z" id="Stroke-31" stroke="#6BB9F0" stroke-width="2"></path>
                        <path d="M0,59.4827586 L41.3793103,59.4827586 M0,7.75862069 L41.3793103,7.75862069" id="Stroke-32" stroke="#6BB9F0" stroke-width="2"></path>
                        <path d="M23.2267241,22.0073276 L18.1525862,22.0073276 C17.4116379,22.0073276 16.8103448,21.4060345 16.8103448,20.6650862 L16.8103448,15.5909483 C16.8103448,14.85 17.4116379,14.2487069 18.1525862,14.2487069 L23.2267241,14.2487069 C23.9676724,14.2487069 24.5689655,14.85 24.5689655,15.5909483 L24.5689655,20.6650862 C24.5689655,21.4060345 23.9676724,22.0073276 23.2267241,22.0073276 L23.2267241,22.0073276 L23.2267241,22.0073276 Z" id="Fill-53" fill="#C6E3F8"></path>
                        <path d="M23.2267241,22.0073276 L18.1525862,22.0073276 C17.4116379,22.0073276 16.8103448,21.4060345 16.8103448,20.6650862 L16.8103448,15.5909483 C16.8103448,14.85 17.4116379,14.2487069 18.1525862,14.2487069 L23.2267241,14.2487069 C23.9676724,14.2487069 24.5689655,14.85 24.5689655,15.5909483 L24.5689655,20.6650862 C24.5689655,21.4060345 23.9676724,22.0073276 23.2267241,22.0073276 L23.2267241,22.0073276 L23.2267241,22.0073276 Z" id="Stroke-54" stroke="#6BB9F0" stroke-width="2"></path>
                        <path d="M11.5887931,22.0073276 L6.51465517,22.0073276 C5.7737069,22.0073276 5.17241379,21.4060345 5.17241379,20.6650862 L5.17241379,15.5909483 C5.17241379,14.85 5.7737069,14.2487069 6.51465517,14.2487069 L11.5887931,14.2487069 C12.3297414,14.2487069 12.9310345,14.85 12.9310345,15.5909483 L12.9310345,20.6650862 C12.9310345,21.4060345 12.3297414,22.0073276 11.5887931,22.0073276 L11.5887931,22.0073276 L11.5887931,22.0073276 Z" id="Fill-55" fill="#C6E3F8"></path>
                        <path d="M11.5887931,22.0073276 L6.51465517,22.0073276 C5.7737069,22.0073276 5.17241379,21.4060345 5.17241379,20.6650862 L5.17241379,15.5909483 C5.17241379,14.85 5.7737069,14.2487069 6.51465517,14.2487069 L11.5887931,14.2487069 C12.3297414,14.2487069 12.9310345,14.85 12.9310345,15.5909483 L12.9310345,20.6650862 C12.9310345,21.4060345 12.3297414,22.0073276 11.5887931,22.0073276 L11.5887931,22.0073276 L11.5887931,22.0073276 Z" id="Stroke-56" stroke="#6BB9F0" stroke-width="2"></path>
                        <path d="M34.8646552,22.0073276 L29.7905172,22.0073276 C29.049569,22.0073276 28.4482759,21.4060345 28.4482759,20.6650862 L28.4482759,15.5909483 C28.4482759,14.85 29.049569,14.2487069 29.7905172,14.2487069 L34.8646552,14.2487069 C35.6056034,14.2487069 36.2068966,14.85 36.2068966,15.5909483 L36.2068966,20.6650862 C36.2068966,21.4060345 35.6056034,22.0073276 34.8646552,22.0073276 L34.8646552,22.0073276 L34.8646552,22.0073276 Z" id="Fill-57" fill="#C6E3F8"></path>
                        <path d="M34.8646552,22.0073276 L29.7905172,22.0073276 C29.049569,22.0073276 28.4482759,21.4060345 28.4482759,20.6650862 L28.4482759,15.5909483 C28.4482759,14.85 29.049569,14.2487069 29.7905172,14.2487069 L34.8646552,14.2487069 C35.6056034,14.2487069 36.2068966,14.85 36.2068966,15.5909483 L36.2068966,20.6650862 C36.2068966,21.4060345 35.6056034,22.0073276 34.8646552,22.0073276 L34.8646552,22.0073276 L34.8646552,22.0073276 Z" id="Stroke-58" stroke="#6BB9F0" stroke-width="2"></path>
                        <path d="M23.2267241,33.6206897 L18.1525862,33.6206897 C17.4116379,33.6206897 16.8103448,33.0193966 16.8103448,32.2784483 L16.8103448,27.2043103 C16.8103448,26.4633621 17.4116379,25.862069 18.1525862,25.862069 L23.2267241,25.862069 C23.9676724,25.862069 24.5689655,26.4633621 24.5689655,27.2043103 L24.5689655,32.2784483 C24.5689655,33.0193966 23.9676724,33.6206897 23.2267241,33.6206897 L23.2267241,33.6206897 L23.2267241,33.6206897 Z" id="Fill-59" fill="#C6E3F8"></path>
                        <path d="M23.2267241,33.6206897 L18.1525862,33.6206897 C17.4116379,33.6206897 16.8103448,33.0193966 16.8103448,32.2784483 L16.8103448,27.2043103 C16.8103448,26.4633621 17.4116379,25.862069 18.1525862,25.862069 L23.2267241,25.862069 C23.9676724,25.862069 24.5689655,26.4633621 24.5689655,27.2043103 L24.5689655,32.2784483 C24.5689655,33.0193966 23.9676724,33.6206897 23.2267241,33.6206897 L23.2267241,33.6206897 L23.2267241,33.6206897 Z" id="Stroke-60" stroke="#6BB9F0" stroke-width="2"></path>
                        <path d="M11.5887931,33.6206897 L6.51465517,33.6206897 C5.7737069,33.6206897 5.17241379,33.0193966 5.17241379,32.2784483 L5.17241379,27.2043103 C5.17241379,26.4633621 5.7737069,25.862069 6.51465517,25.862069 L11.5887931,25.862069 C12.3297414,25.862069 12.9310345,26.4633621 12.9310345,27.2043103 L12.9310345,32.2784483 C12.9310345,33.0193966 12.3297414,33.6206897 11.5887931,33.6206897 L11.5887931,33.6206897 L11.5887931,33.6206897 Z" id="Fill-61" fill="#C6E3F8"></path>
                        <path d="M11.5887931,33.6206897 L6.51465517,33.6206897 C5.7737069,33.6206897 5.17241379,33.0193966 5.17241379,32.2784483 L5.17241379,27.2043103 C5.17241379,26.4633621 5.7737069,25.862069 6.51465517,25.862069 L11.5887931,25.862069 C12.3297414,25.862069 12.9310345,26.4633621 12.9310345,27.2043103 L12.9310345,32.2784483 C12.9310345,33.0193966 12.3297414,33.6206897 11.5887931,33.6206897 L11.5887931,33.6206897 L11.5887931,33.6206897 Z" id="Stroke-62" stroke="#6BB9F0" stroke-width="2"></path>
                        <path d="M34.8646552,33.6206897 L29.7905172,33.6206897 C29.049569,33.6206897 28.4482759,33.0193966 28.4482759,32.2784483 L28.4482759,27.2043103 C28.4482759,26.4633621 29.049569,25.862069 29.7905172,25.862069 L34.8646552,25.862069 C35.6056034,25.862069 36.2068966,26.4633621 36.2068966,27.2043103 L36.2068966,32.2784483 C36.2068966,33.0193966 35.6056034,33.6206897 34.8646552,33.6206897 L34.8646552,33.6206897 L34.8646552,33.6206897 Z" id="Fill-63" fill="#C6E3F8"></path>
                        <path d="M34.8646552,33.6206897 L29.7905172,33.6206897 C29.049569,33.6206897 28.4482759,33.0193966 28.4482759,32.2784483 L28.4482759,27.2043103 C28.4482759,26.4633621 29.049569,25.862069 29.7905172,25.862069 L34.8646552,25.862069 C35.6056034,25.862069 36.2068966,26.4633621 36.2068966,27.2043103 L36.2068966,32.2784483 C36.2068966,33.0193966 35.6056034,33.6206897 34.8646552,33.6206897 L34.8646552,33.6206897 L34.8646552,33.6206897 Z" id="Stroke-64" stroke="#6BB9F0" stroke-width="2"></path>
                        <path d="M23.2267241,45.2586207 L18.1525862,45.2586207 C17.4116379,45.2586207 16.8103448,44.6573276 16.8103448,43.9163793 L16.8103448,38.8422414 C16.8103448,38.1012931 17.4116379,37.5 18.1525862,37.5 L23.2267241,37.5 C23.9676724,37.5 24.5689655,38.1012931 24.5689655,38.8422414 L24.5689655,43.9163793 C24.5689655,44.6573276 23.9676724,45.2586207 23.2267241,45.2586207 L23.2267241,45.2586207 L23.2267241,45.2586207 Z" id="Fill-65" fill="#C6E3F8"></path>
                        <path d="M23.2267241,45.2586207 L18.1525862,45.2586207 C17.4116379,45.2586207 16.8103448,44.6573276 16.8103448,43.9163793 L16.8103448,38.8422414 C16.8103448,38.1012931 17.4116379,37.5 18.1525862,37.5 L23.2267241,37.5 C23.9676724,37.5 24.5689655,38.1012931 24.5689655,38.8422414 L24.5689655,43.9163793 C24.5689655,44.6573276 23.9676724,45.2586207 23.2267241,45.2586207 L23.2267241,45.2586207 L23.2267241,45.2586207 Z" id="Stroke-66" stroke="#6BB9F0" stroke-width="2"></path>
                        <path d="M11.5887931,45.2586207 L6.51465517,45.2586207 C5.7737069,45.2586207 5.17241379,44.6573276 5.17241379,43.9163793 L5.17241379,38.8422414 C5.17241379,38.1012931 5.7737069,37.5 6.51465517,37.5 L11.5887931,37.5 C12.3297414,37.5 12.9310345,38.1012931 12.9310345,38.8422414 L12.9310345,43.9163793 C12.9310345,44.6573276 12.3297414,45.2586207 11.5887931,45.2586207 L11.5887931,45.2586207 L11.5887931,45.2586207 Z" id="Fill-67" fill="#C6E3F8"></path>
                        <path d="M11.5887931,45.2586207 L6.51465517,45.2586207 C5.7737069,45.2586207 5.17241379,44.6573276 5.17241379,43.9163793 L5.17241379,38.8422414 C5.17241379,38.1012931 5.7737069,37.5 6.51465517,37.5 L11.5887931,37.5 C12.3297414,37.5 12.9310345,38.1012931 12.9310345,38.8422414 L12.9310345,43.9163793 C12.9310345,44.6573276 12.3297414,45.2586207 11.5887931,45.2586207 L11.5887931,45.2586207 L11.5887931,45.2586207 Z" id="Stroke-68" stroke="#6BB9F0" stroke-width="2"></path>
                        <path d="M34.8646552,45.2586207 L29.7905172,45.2586207 C29.049569,45.2586207 28.4482759,44.6573276 28.4482759,43.9163793 L28.4482759,38.8422414 C28.4482759,38.1012931 29.049569,37.5 29.7905172,37.5 L34.8646552,37.5 C35.6056034,37.5 36.2068966,38.1012931 36.2068966,38.8422414 L36.2068966,43.9163793 C36.2068966,44.6573276 35.6056034,45.2586207 34.8646552,45.2586207 L34.8646552,45.2586207 L34.8646552,45.2586207 Z" id="Fill-69" fill="#C6E3F8"></path>
                        <path d="M34.8646552,45.2586207 L29.7905172,45.2586207 C29.049569,45.2586207 28.4482759,44.6573276 28.4482759,43.9163793 L28.4482759,38.8422414 C28.4482759,38.1012931 29.049569,37.5 29.7905172,37.5 L34.8646552,37.5 C35.6056034,37.5 36.2068966,38.1012931 36.2068966,38.8422414 L36.2068966,43.9163793 C36.2068966,44.6573276 35.6056034,45.2586207 34.8646552,45.2586207 L34.8646552,45.2586207 L34.8646552,45.2586207 Z" id="Stroke-70" stroke="#6BB9F0" stroke-width="2"></path>
                    </g>
                </g>
            </g>
        </g>
    </g>
</svg>